# xmcd
#
# Track frame offsets:
#	150
#	13282
#	24127
#	39055
#	54092
#	86668
#	100632
#	110369
#	120598
#	134598
#	143956
#	157730
#	176469
#	188372
#	201603
#	213852
#	228210
#	253896
#	275392
#
# Disc length: 4146
#
# Revision: 1
# Processed by: cddbd v1.5.2PL0 Copyright (c) Steve Scherf et al.
# Submitted via: ExactAudioCopy v0.90b4
# Normalized: r0:DSETVAR1,TDELIM( - )
#
DISCID=f1103013
DTITLE=Various Artist - Say It Loud 3
DYEAR=2001
DGENRE=R&B
TTITLE0=Ray Charles - I've Got A Woman
TTITLE1=Fats Domino - Ain't It A Shame
TTITLE2=Bo Diddley - Bo Diddley
TTITLE3=Sammy Davis, Jr - That Old Black Magic
TTITLE4=Miles Davis 5 - Four
TTITLE5=The Platters - The Great Pretender
TTITLE6=Little Richard - Long Tall Sally
TTITLE7=Chuck Berry - Brown Eyed Handsome Man
TTITLE8=Harry Belafonte - Banana Boat (Day-O)
TTITLE9=The Soul Stirrers w/ Sam Cooke - Touch The Hem Of His Garment
TTITLE10=Marian Anderson - Sometime I Feel Like A Motherless Child
TTITLE11=Johnny Mathis - Misty
TTITLE12=Hank Ballard and the Midnighters - The Twist
TTITLE13=Howlin Wolf - I Aint Superstitious
TTITLE14=Bobby Bland - I Pity The Fool
TTITLE15=Etta James - At Last
TTITLE16=Charles Mingus - Wednesday Night Prayer Meeting
TTITLE17=John Coltrane - Giant Steps
TTITLE18=Herbie Hancock - Maiden Voyage
EXTD=
EXTT0=
EXTT1=
EXTT2=
EXTT3=
EXTT4=
EXTT5=
EXTT6=
EXTT7=
EXTT8=
EXTT9=
EXTT10=
EXTT11=
EXTT12=
EXTT13=
EXTT14=
EXTT15=
EXTT16=
EXTT17=
EXTT18=
PLAYORDER=
